<svg xmlns="http://www.w3.org/2000/svg" fill="none" viewBox="0 0 359 30">
  <g opacity=".5">
    <g fill="#180A6D" clip-path="url(#a)">
      <path d="M174.61 20.0423c.02.11.025.2221.014.3333-.141.6789-.089 1.3876-.402 2.0506-.165.3509-.147.7877-.2 1.1876-.077.5859-.145 1.1736-.215 1.7542-.122 1.0525-.98 2.005-2.201 1.998-5.703-.0351-11.405-.0351-17.106 0-.499.0035-.984-.1621-1.372-.4685-.388-.3065-.655-.7348-.756-1.212-.277-1.1244-.392-2.2594-.591-3.3873-.158-.8771-.36-1.7542-.539-2.6453-.009-.0649-.001-.1309.023-.1921.024-.0612.063-.1157.113-.1587.231-.09.473-.149.719-.1755 1.946-.2578 3.903-.2473 5.855-.1561 1.094.0509 2.181.2123 3.272.3316.485.0526 1.003.0385 1.438.2069 1.024.393 2.111.4018 3.163.5123 1.818.1894 3.66.2157 5.493.2298 1.094.014 2.173-.1298 3.292-.2088Zm-24.418-1.7384c-.014-1.0121-.231-2.0541.376-2.9277.453-.6508 1.078-1.2279 1.955-1.3244.343-.0343.687-.0483 1.032-.0421h18.9c.692 0 1.377.0193 1.963.3929.539.3386 1.056.7596 1.18 1.4034.153.8016.2 1.6243.297 2.4892-.476.1227-.863.2333-1.258.3192-.56.1442-1.128.2549-1.702.3316-.964.0982-1.932.1491-2.902.1526-1.014-.0014-2.026-.06-3.033-.1755-1.132-.1333-2.252-.3718-3.379-.5508-.481-.0754-.97-.1087-1.452-.1754-.738-.0965-1.471-.2263-2.21-.2964-1.376-.1298-2.753-.2789-4.133-.3175-1.058-.0205-2.116.0381-3.165.1754-.814.0912-1.599.3438-2.469.5455Zm22.702-7.1097c-.18.4316.115.7982-.293 1.1034-.34.2544-.776.4877-1.119.3017-.344-.1859-.577-.4297-.563-.8578.044-.9539-.14-1.90483-.539-2.77681-.306-.68151-.701-1.32131-1.175-1.90328-.635-.71401-1.366-1.34122-2.173-1.86469-.446-.30874-1.039-.41925-1.57-.60168-.34-.11483-.686-.21203-1.036-.2912-.958-.20787-1.951-.20787-2.909 0-.816.15907-1.604.43637-2.336.82271-1.024.51887-1.904 1.27249-2.564 2.19623-.395.581-.736 1.19503-1.019 1.83487-.399.86485-.507 1.74365-.539 2.64525-.012.2388-.12.4633-.301.6244-.181.1611-.42.2457-.664.2352-.5.014-.845-.3508-.856-.8613-.024-1.1368.173-2.26788.581-3.33294.275-.65157.626-1.27016 1.046-1.84364.337-.54195.746-1.03801 1.216-1.47526.581-.49644 1.118-1.06654 1.869-1.35949.453-.17542.861-.46486 1.31-.65255.616-.25962 1.213-.55959 1.921-.57888.918-.02631 1.837-.16314 2.751-.12981.791.02807 1.592.12104 2.322.52625.458.25611 1.012.35084 1.474.59993.505.29203.986.62286 1.437.98936.419.32101.807.67886 1.204 1.02794.122.10124.228.21945.315.35084.37.60168.688 1.2402 1.099 1.81557.513.71395.646 1.52438.8 2.34538.085.3749.188.7455.311 1.1103ZM0 25.5995V6.51234h7.02272c2.51581 0 4.43258.45024 5.75038 1.35072 1.3179.90048 1.972 2.20674 1.9624 3.91884.0268.8919-.2163 1.7718-.6991 2.5295-.4929.7211-1.2144 1.2646-2.0539 1.5472 1.0183.2631 1.8006.7549 2.3469 1.4753.5628.7649.8509 1.6899.8194 2.6312 0 1.8711-.6068 3.2745-1.8204 4.21-1.2136.9356-3.0106 1.4145-5.39101 1.4367L0 25.5995Zm4.71356-11.1302h2.45831c1.02789-.0094 1.76167-.1936 2.20134-.5526.43966-.359.65889-.8893.65769-1.591 0-.8058-.23959-1.3864-.71879-1.7419-.47921-.3555-1.24473-.5309-2.29658-.5263H4.71356v4.4118Zm0 3.0154v4.5749h3.08906c.84939 0 1.5029-.19 1.96054-.5701.45764-.3801.68584-.9151.68464-1.6051 0-1.5916-.81043-2.3915-2.43134-2.3997h-3.3029ZM25.717 25.5995c-.2017-.4028-.3462-.8307-.4295-1.2717-.8386 1.0221-2.0024 1.5331-3.4916 1.5331-1.2775.0325-2.5219-.3995-3.4916-1.2121-.4593-.3697-.8271-.836-1.0761-1.3639-.2489-.5279-.3725-1.1038-.3615-1.6849 0-1.5366.5823-2.6985 1.7467-3.4855 1.1645-.7871 2.8561-1.1806 5.0748-1.1806h1.3981v-.7508c0-1.3086-.5775-1.9629-1.7324-1.9629-1.0782 0-1.6173.5181-1.6173 1.5542h-4.5212c0-1.3706.599-2.4816 1.797-3.3329 1.198-.8514 2.7224-1.2794 4.5734-1.2841 1.8533 0 3.3166.4415 4.3901 1.3244 1.0734.8829 1.6244 2.0933 1.6532 3.6312v6.2799c.0156 1.3016.221 2.2956.6164 2.9821v.2228l-4.5285.0017Zm-2.8339-2.8838c.4929.0189.9806-.1031 1.4035-.3509.332-.1957.6073-.471.7997-.7999v-2.2716h-1.3172c-1.5766 0-2.3643.6905-2.3631 2.0717-.0071.1826.0265.3645.0985.5332.072.1687.1806.3201.3184.4438.2904.254.6706.388 1.0602.3737Zm16.8542-1.1016c0-.3754-.2013-.6772-.6038-.9052-.4025-.228-1.168-.4619-2.2966-.7017-.9731-.1912-1.9139-.5154-2.7943-.963-.6713-.3434-1.2472-.8406-1.6784-1.449-.3883-.5803-.5893-1.2611-.5769-1.9541 0-1.3016.5505-2.374 1.6515-3.2172 1.101-.8431 2.5422-1.2653 4.3236-1.2665 1.9168 0 3.4568.4239 4.6201 1.2718 1.1633.8478 1.7449 1.9623 1.7449 3.3434H39.59c0-1.1367-.6134-1.705-1.8402-1.705-.4329-.0135-.8565.1239-1.195.3877-.1519.1126-.2747.2583-.3586.4256-.084.1672-.1267.3512-.1248.5374.0026.1954.0584.3866.1617.5539.1032.1674.2503.305.4259.3986.3954.2433 1.0243.4438 1.8869.6017.7719.1345 1.5328.3233 2.2768.5648 2.1852.7333 3.2778 2.0483 3.2778 3.9452 0 1.2946-.5889 2.3471-1.7665 3.1575s-2.7021 1.2197-4.5734 1.2279c-1.1454.02-2.2816-.2033-3.3299-.6543-.9104-.3848-1.6985-1.0009-2.2822-1.784-.5238-.6857-.8107-1.5163-.8194-2.3716h4.2302c.0179.6537.2414 1.132.6702 1.4349.4874.3181 1.0658.4766 1.6515.4526.6182 0 1.0818-.1228 1.3909-.3684.15-.1132.2703-.2595.3512-.4269.0809-.1674.1201-.3512.1142-.5361Zm12.3149-1.2981-1.2759 1.2454v4.0346h-4.5266V5.45108h4.5266V16.1516l.4565-.5912 3.4143-4.1416h5.4252l-5.0838 5.8291 5.4252 8.3516h-5.1934l-3.1681-5.2835Zm16.2342 5.5449c-2.2283 0-4.0319-.6484-5.4108-1.9454-1.3789-1.2969-2.0684-2.9861-2.0684-5.0678v-.3666c-.0278-1.3253.2549-2.6393.8267-3.8416.5199-1.0735 1.3598-1.9686 2.4098-2.5681 1.0566-.607 2.3097-.9111 3.7593-.9122 2.0366 0 3.6485.6186 4.8357 1.8559 1.1873 1.2373 1.7779 2.961 1.7719 5.1713v1.7173h-8.9994c.122.7259.4972 1.3884 1.062 1.8753.5439.4549 1.2507.6817 2.1205.6806 1.4376 0 2.5571-.4894 3.3586-1.4683l2.0666 2.3857c-.6182.8038-1.4461 1.4308-2.3973 1.8156-1.0505.4513-2.1875.6791-3.3352.6683Zm-.5104-11.3004c-1.325 0-2.1126.8566-2.363 2.5699h4.5662v-.3403c.0179-.7087-.1654-1.2572-.5499-1.6454-.3846-.3883-.9357-.583-1.6533-.5842Zm13.7256-6.67111v3.52591h2.39v3.068h-2.39v6.4905c0 .5262.0989.9034.2947 1.1139.1959.2105.5877.314 1.1699.314.3772.0052.7541-.0212 1.1267-.079v3.1576c-.8251.2557-1.686.3842-2.5517.3806-1.5574 0-2.7075-.3584-3.4503-1.0753-.7428-.7169-1.1147-1.8045-1.1159-3.2628v-7.0395h-1.8599v-3.068h1.8527V7.88939h4.5338Zm4.3775 17.71011V6.51235h6.3075c1.6296-.02436 3.2369.37136 4.6597 1.14723 1.3724.75634 2.4947 1.87988 3.2347 3.23822.781 1.4416 1.18 3.0511 1.161 4.6819v.8771c.028 1.6341-.362 3.2494-1.134 4.6994-.7285 1.3575-1.8373 2.4848-3.197 3.2505-1.3972.7886-2.9847 1.1986-4.5986 1.1876l-6.4333.0052Zm4.7136-15.5349v11.995h1.6389c1.3513 0 2.39-.4678 3.116-1.4033.726-.9356 1.0854-2.3319 1.0782-4.189v-.8315c0-1.843-.3594-3.2323-1.0782-4.1679-.7188-.9356-1.7755-1.4033-3.17-1.4033h-1.5849Zm24.1733 11.9687h-6.46l-1.129 3.5662h-5.031l7.168-19.08716h4.437l7.224 19.08716h-5.068l-1.141-3.5662Zm-5.328-3.5522h4.203l-2.111-6.6203-2.092 6.6203Zm29.232-2.0243c0 1.8617-.354 3.5089-1.062 4.9415-.649 1.3662-1.697 2.5152-3.012 3.3031-1.344.7844-2.887 1.1861-4.453 1.1595-1.554.0281-3.087-.3595-4.431-1.1209-1.302-.7581-2.35-1.8683-3.018-3.1961-.718-1.3893-1.096-2.9845-1.133-4.7854v-1.0823c0-1.8712.351-3.5207 1.054-4.9486.649-1.37107 1.701-2.52316 3.021-3.31009 1.354-.76291 2.89-1.16571 4.453-1.16817 1.563-.00246 3.1.3955 4.457 1.15413 1.314.7857 2.366 1.92633 3.03 3.28383.718 1.4209 1.083 3.0487 1.094 4.8836v.8859Zm-4.793-.8069c0-1.8969-.324-3.3371-.974-4.3206-.287-.466-.697-.8484-1.188-1.1075-.49-.25913-1.042-.38549-1.599-.36599-2.362 0-3.611 1.73019-3.747 5.19059l-.012 1.4034c0 1.8711.317 3.3083.952 4.3117s1.58 1.5063 2.834 1.5086c.553.0171 1.1-.1116 1.585-.3724.484-.2608.888-.6442 1.168-1.1099.645-.987.972-2.4073.981-4.2609v-.877Z"/>
    </g>
    <g clip-path="url(#b)">
      <path fill="#A20ED3" d="M345.952 8.77886c2.268-1.86056 4.25-3.2051 7.05-4.93746-1.722-1.4178-3.75-2.41677-5.925-2.918075-2.174-.501303-4.436-.491213-6.606.029473-2.53 3.044852-2.798 6.107322-6.539 12.472702-1.507 2.564-2.804 3.9647-4.087 4.7395.786 3.3507 2.751 6.308 5.539 8.3333 1.37-1.7124 2.359-4.0312 3.273-6.7187 1.284-3.7796 4.304-8.5456 7.295-11.00074Z"/>
      <path fill="#6C5DFE" d="M353.001 3.8414c-2.8 1.73076-4.781 3.0769-7.05 4.93746C342.96 11.234 339.94 16 338.657 19.778c-.915 2.6875-1.904 5.0063-3.274 6.7187 1.962 1.4306 4.257 2.3382 6.668 2.637 3.082-.7268 6.703-1.8926 7.879-5.758 1.327-4.3653 1.89-10.3485 6.928-14.56959-.904-1.91808-2.221-3.61331-3.857-4.96471Z"/>
      <path fill="#30C7FF" d="M358.219 14.895c.002-2.1049-.461-4.1843-1.357-6.0897-5.038 4.2211-5.601 10.2042-6.928 14.5696-1.176 3.8654-4.797 5.0312-7.879 5.758 3.18.396 6.401-.2784 9.153-1.9165 2.752-1.6381 4.878-4.1462 6.04-7.1267l.782-2.8662c.126-.7698.189-1.5485.189-2.3285Z"/>
      <path fill="#D60A99" d="M333.932 13.4222c3.741-6.36529 4.009-9.43097 6.539-12.472615-3.687.891805-6.871 3.200475-8.861 6.423815-1.99 3.2233-2.624 7.1006-1.765 10.7884 1.283-.7748 2.58-2.1747 4.087-4.7396Z"/>
      <path fill="#180A6D" d="M219.952 24.6706c-.066-.0618-.118-.1363-.153-.219-.036-.0827-.054-.1718-.054-.2618V6.29249c-.003-.09264.014-.18484.05-.2704.035-.08555.089-.16248.157-.22559.129-.1246.302-.19365.482-.19231h7.725c2.354 0 4.207.5414 5.559 1.62419 1.351 1.08279 2.027 2.66184 2.027 4.73712 0 2.0561-.671 3.6028-2.013 4.6402-1.342 1.0374-3.2 1.5558-5.573 1.5553h-3.283v6.0288c.003.0926-.013.1848-.049.2704-.036.0855-.089.1625-.157.2256-.139.1282-.322.1973-.511.1923h-3.724c-.091.0002-.18-.0182-.263-.0539-.083-.0357-.158-.088-.22-.1536Zm8.069-10.3093c.809 0 1.444-.2067 1.904-.6202.461-.4134.69-1.0237.69-1.8309 0-.7521-.216-1.3533-.649-1.8036-.432-.45036-1.08-.67525-1.945-.67471h-3.228v4.92941h3.228Zm10.236-6.05841c-.064-.06509-.115-.14268-.148-.22799-.033-.08531-.049-.17652-.045-.268V5.32856c-.005-.09158.01-.18303.044-.26853.033-.0855.083-.16317.148-.22807.065-.0649.143-.11561.228-.14889.086-.03328.177-.0484.269-.04441h3.308c.092-.00398.183.01111.269.04429.085.03318.163.08374.228.14847.065.06472.115.1422.149.2275.033.08531.048.17659.044.26803V7.8069c.004.09145-.011.18272-.044.26803-.034.08531-.084.16278-.149.22751-.065.06472-.143.11528-.228.14846-.086.03319-.177.04827-.269.0443h-3.308c-.091.0034-.182-.0119-.268-.04497-.085-.03307-.163-.08321-.228-.14734Zm.031 16.38531c-.064-.0653-.114-.1429-.147-.2282-.033-.0853-.049-.1764-.045-.2678v-12.943c-.004-.0915.01-.1829.044-.2683.033-.0854.083-.163.148-.2278.065-.0648.143-.1153.229-.1484.085-.0331.177-.048.268-.0438h3.255c.092-.0042.184.0107.269.0438.086.0331.164.0836.228.1484.065.0648.116.1424.149.2278.033.0854.048.1768.044.2683v12.9406c.001.1793-.068.3519-.193.4808-.063.0678-.14.1214-.226.1571-.085.0356-.178.0525-.271.0496h-3.259c-.09.0033-.181-.0117-.266-.0442-.084-.0325-.161-.0818-.227-.1449Zm9.1-1.3221c-1.269-1.1934-1.931-2.9295-1.986-5.2083v-.9615c.073-2.1667.749-3.8603 2.028-5.0809 1.279-1.2206 2.995-1.8307 5.147-1.8302 1.563 0 2.882.3168 3.959.9504 1.051.6063 1.897 1.5127 2.428 2.6025.542 1.101.813 2.3675.814 3.7997v.661c.001.1793-.069.3519-.194.4808-.063.0677-.14.1212-.226.1567-.085.0355-.178.0523-.27.0492h-8.831v.1931c.036.8633.248 1.5609.635 2.0929.386.5321.948.7992 1.685.8013.459 0 .836-.0964 1.131-.2892.299-.1962.569-.4327.803-.7028.166-.2011.299-.3253.401-.3718.155-.0536.319-.0767.482-.0681h3.421c.156-.003.308.0509.427.1515.059.0486.106.11.137.1794.031.0695.046.1452.043.2212 0 .4776-.271 1.0283-.814 1.6522-.542.624-1.328 1.1656-2.358 1.625-1.031.4584-2.245.6878-3.642.6883-2.21-.0016-3.95-.5991-5.22-1.7924Zm7.533-7.1049v-.0553c0-.8991-.207-1.6103-.621-2.1338-.414-.5235-.988-.7853-1.723-.7853-.717 0-1.283.2618-1.697.7853-.413.5235-.62 1.2347-.62 2.1338v.0553h4.661Zm7.959 8.4093c-.066-.0617-.118-.1362-.154-.2189-.035-.0827-.054-.1718-.053-.2618V6.29249c-.003-.09264.014-.18484.049-.2704.036-.08555.09-.16248.158-.22559.129-.1246.302-.19365.481-.19231h7.174c2.703 0 4.8.64102 6.29 1.92306 1.49 1.28204 2.272 3.14555 2.345 5.59055.019.5341.028 1.2409.027 2.1201 0 .8793-.009 1.5769-.027 2.093-.092 2.5523-.851 4.4486-2.276 5.689-1.425 1.2404-3.499 1.86-6.221 1.859h-7.311c-.09.0001-.18-.0184-.263-.0542-.083-.0359-.157-.0883-.219-.1542Zm7.656-3.7587c1.213 0 2.105-.289 2.676-.867.57-.578.874-1.5005.91-2.7676.037-.5342.055-1.2228.056-2.0657 0-.843-.018-1.5222-.056-2.0377-.037-1.2286-.363-2.1367-.979-2.7243-.616-.5876-1.531-.8814-2.746-.8814h-2.759V20.915l2.898-.0032Zm9.977 3.79c-.056-.0509-.101-.1127-.132-.1816-.031-.069-.047-.1435-.048-.219-.004-.0835.006-.1671.028-.2476l6.479-17.67857c.054-.21853.181-.41245.359-.55047.206-.1543.459-.23221.717-.22035h4.083c.257-.01148.51.0664.716.22035.178.13802.304.33194.358.55047l6.456 17.67937.056.2476c-.002.0754-.018.1498-.049.2187-.031.0688-.075.1307-.131.1819-.055.0573-.121.1027-.195.1335-.074.0307-.153.0461-.232.0452h-3.392c-.441 0-.736-.1928-.883-.5785l-1.076-2.8045h-7.366l-1.049 2.8045c-.147.3862-.45.579-.91.5785h-3.393c-.075-.0015-.149-.0183-.217-.0491-.068-.0309-.129-.0752-.179-.1304Zm12.015-7.1738-2.569-7.27-2.569 7.27h5.138Zm10.589 5.7275c-1.489-1.266-2.28-3.1292-2.373-5.5897-.018-.5342-.027-1.3237-.027-2.3686 0-1.0641.009-1.8627.027-2.3958.093-2.423.897-4.29109 2.414-5.60411 1.518-1.31303 3.545-1.96927 6.084-1.96874 2.538 0 4.571.65625 6.1 1.96874s2.329 3.18051 2.401 5.60411c.035 1.0652.054 1.8638.055 2.3958 0 .5144-.018 1.304-.055 2.3686-.093 2.4572-.884 4.3205-2.373 5.5897-1.49 1.2692-3.531 1.9028-6.125 1.9006-2.595 0-4.638-.6335-6.128-1.9006Zm8.542-2.9735c.598-.6058.915-1.5329.952-2.7813.037-1.0651.055-1.8181.055-2.2588 0-.477-.018-1.2297-.055-2.258-.037-1.2483-.358-2.1754-.964-2.7812-.605-.60575-1.405-.90863-2.4-.90863-.993 0-1.788.30288-2.386.90863-.597.6058-.924 1.5329-.981 2.7812-.019.5145-.028 1.2671-.028 2.258 0 .9733.009 1.7263.028 2.2588.053 1.2484.374 2.1755.963 2.7813.589.6057 1.389.9086 2.4.9086s1.816-.3029 2.416-.9086Z"/>
    </g>
  </g>
  <defs>
    <clipPath id="a">
      <path fill="#fff" d="M0 0h175.895v24.9496H0z" transform="translate(0 2.42337)"/>
    </clipPath>
    <clipPath id="b">
      <path fill="#fff" d="M0 0h138.471v28.6921H0z" transform="translate(219.745 .552155)"/>
    </clipPath>
  </defs>
</svg>